<svg viewBox="0 0 100 100" xmlns="http://www.w3.org/2000/svg">
  <path d="M32 90 L36 76 L64 76 L68 90 Z" fill="#5b7a99"/>
  <path d="M40 90 Q50 78 60 90 Z" fill="none" stroke="#33302b" stroke-width="1.6"/>
  <path d="M36 76 L45 42 L39 42 L47 22 L44 22 L50 10 L56 22 L53 22 L61 42 L55 42 L64 76 Z" fill="#5b7a99"/>
  <path d="M38 70 L62 70 M40 58 L60 58 M42 46 L58 46" stroke="#33302b" stroke-width="1" opacity="0.45"/>
  <path d="M36 76 L50 10 M64 76 L50 10 M39 42 L61 42 M44 22 L56 22" stroke="#33302b" stroke-width="0.7" opacity="0.35"/>
</svg>
